<svg height="500" viewBox="0 0 543 500" width="543" xmlns="http://www.w3.org/2000/svg"><path d="m79 245c0-108.727 87.153-197 194.5-197s194.5 88.273 194.5 197-87.153 197-194.5 197-194.5-88.273-194.5-197z" fill="#f8951a"/><path d="m153 381.5c0-36.702 51.978-66.5 116-66.5s116 29.798 116 66.5-51.978 66.5-116 66.5-116-29.798-116-66.5z" fill="#fff"/><path d="m367.061 418.894c-39.768.753-144.086.779-188.224.079l-21.6-14.688c.717-1.002.307-3.589-1.132-7.797-10.26-30.007-12.211-52.682-7.955-92.449 1.938-18.111 7.716-43.303 12.169-53.057.735-1.61 1.021-5.692 1.032-14.733.054-45.88 21.053-97.893 43.904-108.747 5.704-2.709 6.439-2.664 13.423.832 14.017 7.015 24.655 22.285 32.601 46.791 2.259 6.965 1.538 6.63 14.239 6.63 6.156 0 14.673.289 18.927.643 9.259.77 9.344.715 11.77-7.641 9.148-31.503 31.767-54.643 46.057-47.119 24.726 13.019 45.07 65.823 43.548 113.031-.361 11.183-.287 12.043 1.49 17.311 9.19 27.248 8.384 106.938-1.308 129.3-.351.81-1.325 3.628-2.165 6.261-.839 2.634-2.691 7.17-4.114 10.08-1.726 3.528-2.22 6.484-1.744 7.842z" fill="#fff"/><g fill-rule="evenodd"><path d="m205.507 144.37c-12.335 12.985-23.442 37.283-27.864 60.957-4.441 23.774-3.088 30.889 4.174 21.957 10.861-13.358 30.901-27.491 48.394-34.13 9.281-3.522 10.339-4.392 9.671-7.954-3.401-18.143-20.321-45.066-28.323-45.066-1.511 0-3.053 1.08-6.052 4.236z" fill="#5a5c5c"/><path d="m329.099 143.474c-7.854 6.398-14.679 18.13-20.403 35.075-3.544 10.493-3.646 10.288 7.056 14.274 16.462 6.132 37.852 20.912 48.215 33.315 8.033 9.615 9.589 4.455 5.496-18.232-4.695-26.023-14.449-48.07-27.942-63.155-5.203-5.817-6.664-5.967-12.422-1.277z" fill="#5a5c5c"/><path d="m209.468 232.538c-27.184 10.098-33.853 47.983-11.917 67.705 22.506 20.235 56.754 1.822 56.654-30.458-.079-25.269-23.805-45.023-44.737-37.247z" fill="#5a5c5c"/><path d="m323.855 256.85c-9.43 4.285-10.415 15.097-1.899 20.836 8.927 6.016 21.04-5.319 16.033-15.003-2.806-5.426-9.212-8.07-14.134-5.833z" fill="#5a5c5c"/><path d="m224.256 259.242c1.132.571 2.706 2.099 3.497 3.396 5.985 9.817-7.877 20.504-15.433 11.898-7.762-8.841 1.413-20.597 11.936-15.294z" fill="#fff"/><path d="m257.426 318.296c-8.669 2.996-12.322 7.587-12.204 15.34.139 9.164 8.483 21.699 17.722 26.623 5.64 3.007 5.385 1.913 5.239 22.456-.138 19.399.109 20.555 4.735 22.203 7.345 2.615 8.879-1.299 9.317-23.767l.368-18.917 4.092-2.21c18.155-9.805 23.612-32.23 9.583-39.387-7.685-3.921-30.331-5.285-38.852-2.341z" fill="#5a5c5c"/></g></svg>